<svg xmlns="http://www.w3.org/2000/svg" xmlns:svgjs="http://svgjs.com/svgjs" xmlns:xlink="http://www.w3.org/1999/xlink" width="288" height="288">
	<svg xmlns="http://www.w3.org/2000/svg" width="288" height="288" enable-background="new 0 0 64 64" viewBox="0 0 64 64">
		<circle cx="32" cy="32" r="32" fill="#005c9e" class="color77b3d4 svgShape" />
		<path fill="#231f20" d="M48,32c0-8.8-7.2-16-16-16c-7.5,0-13.8,5.2-15.5,12.1C11.7,28.9,8,33,8,38c0,5.5,4.5,10,10,10h30
			c4.4,0,8-3.6,8-8S52.4,32,48,32z" class="color231f20 svgShape" opacity=".2" />
		<path fill="#fff" d="M48,30c0-8.8-7.2-16-16-16c-7.5,0-13.8,5.2-15.5,12.1C11.7,26.9,8,31,8,36c0,5.5,4.5,10,10,10h30
			c4.4,0,8-3.6,8-8S52.4,30,48,30z" class="colorfff svgShape" />
	</svg>
</svg>