<?xml version="1.0" standalone="no"?>
<!DOCTYPE svg PUBLIC "-//W3C//DTD SVG 20010904//EN"
 "http://www.w3.org/TR/2001/REC-SVG-20010904/DTD/svg10.dtd">
<svg version="1.0" xmlns="http://www.w3.org/2000/svg"
 width="1024.000000pt" height="1024.000000pt" viewBox="0 0 1024.000000 1024.000000"
 preserveAspectRatio="xMidYMid meet">
<metadata>
Created by potrace 1.14, written by Peter Selinger 2001-2017
</metadata>
<g transform="translate(0.000000,1024.000000) scale(0.100000,-0.100000)"
fill="#000000" stroke="none">
<path d="M4438 9755 c-2 -1 -34 -6 -73 -9 -38 -4 -81 -9 -95 -11 -51 -9 -106
-17 -130 -20 -14 -2 -25 -4 -25 -5 0 -2 -22 -7 -70 -15 -22 -4 -78 -18 -125
-32 -47 -14 -89 -26 -95 -27 -5 -2 -17 -5 -25 -8 -142 -52 -201 -74 -230 -87
-19 -8 -37 -15 -40 -15 -20 -3 -344 -179 -360 -196 -13 -13 -102 -70 -110 -70
-6 0 -10 -3 -10 -7 0 -5 -23 -24 -50 -43 -27 -19 -50 -38 -50 -42 0 -5 -4 -8
-9 -8 -22 0 -314 -280 -375 -359 -19 -25 -43 -55 -53 -66 -19 -21 -100 -132
-145 -200 -46 -70 -103 -167 -145 -250 -35 -69 -95 -204 -138 -315 -1 -3 -6
-20 -10 -37 -4 -18 -12 -33 -17 -33 -5 0 -6 -5 -3 -10 4 -6 1 -17 -5 -25 -7
-8 -10 -15 -7 -15 3 0 -3 -26 -14 -57 -11 -32 -21 -69 -23 -83 -2 -14 -6 -32
-9 -40 -4 -8 -12 -49 -20 -90 l-13 -75 -65 4 c-151 9 -325 2 -434 -18 -25 -5
-45 -6 -45 -3 0 2 -6 -1 -13 -7 -8 -6 -16 -9 -18 -6 -3 2 -33 -4 -67 -14 -34
-11 -62 -17 -62 -15 0 2 -20 -5 -45 -16 -25 -11 -45 -18 -45 -15 0 7 -183 -75
-258 -116 -94 -52 -241 -153 -303 -209 -72 -65 -176 -172 -202 -207 -17 -24
-34 -43 -39 -43 -4 0 -8 -6 -8 -14 0 -8 -4 -16 -8 -18 -7 -2 -72 -96 -119
-173 -13 -22 -71 -138 -96 -195 -42 -95 -93 -264 -103 -340 -2 -19 -7 -42 -10
-50 -25 -63 -24 -509 0 -580 3 -8 7 -28 10 -45 15 -92 72 -284 89 -302 4 -3 7
-12 7 -19 0 -14 59 -138 99 -209 37 -65 121 -186 169 -245 55 -66 212 -222
262 -259 19 -14 37 -28 40 -31 11 -11 127 -89 165 -110 48 -28 212 -110 219
-110 3 0 17 -5 33 -12 15 -6 30 -12 33 -13 3 -1 12 -4 20 -8 46 -17 164 -49
235 -63 44 -8 97 -19 117 -23 22 -5 36 -5 32 0 -3 5 5 5 18 0 33 -12 98 -13
838 -14 l666 0 37 24 c74 48 94 147 42 215 -49 63 -13 61 -796 63 -393 0 -727
3 -744 5 -33 4 -105 15 -146 21 -107 18 -322 99 -434 163 -53 31 -152 97 -165
112 -3 3 -27 23 -55 45 -52 42 -167 159 -194 198 -8 12 -18 24 -22 27 -3 3
-29 39 -56 80 -59 89 -120 210 -152 300 -13 36 -26 72 -29 80 -3 8 -7 20 -8
25 -1 6 -3 13 -4 18 -3 9 -4 13 -14 62 -24 116 -31 179 -30 315 0 121 7 227
19 270 2 8 7 29 10 45 13 65 16 77 46 157 17 46 33 93 36 106 3 12 10 22 16
22 6 0 8 3 4 6 -12 13 122 232 195 319 38 46 187 195 194 195 3 0 15 9 26 20
72 67 270 177 410 228 65 24 195 59 253 67 22 3 54 8 70 11 39 6 291 6 330 0
17 -3 53 -8 80 -13 28 -4 73 -8 100 -8 86 0 136 53 149 160 6 42 18 117 40
235 14 79 89 309 136 420 52 123 191 370 247 440 6 8 39 51 72 95 97 130 315
344 436 430 16 11 40 29 54 41 74 59 340 214 367 214 8 0 14 5 14 10 0 6 9 10
19 10 11 0 27 7 35 16 9 8 16 13 16 10 0 -2 37 11 83 29 127 51 357 116 467
131 14 2 43 6 65 9 181 27 525 27 687 0 13 -2 41 -7 63 -10 22 -4 47 -8 55 -9
8 -2 31 -6 50 -11 42 -11 32 -8 105 -25 33 -7 64 -17 70 -22 5 -4 19 -8 31 -8
13 0 26 -5 29 -10 4 -6 12 -10 18 -8 7 1 29 -6 51 -15 21 -9 42 -17 46 -17 12
0 165 -69 245 -111 410 -212 750 -535 979 -929 70 -119 111 -136 259 -104 79
17 285 23 382 11 115 -14 244 -49 345 -94 115 -50 153 -72 266 -155 185 -137
312 -296 418 -528 22 -47 64 -181 71 -227 39 -230 63 -263 195 -268 104 -5
192 -14 228 -24 18 -5 35 -10 37 -10 19 1 82 -17 155 -43 232 -83 451 -242
591 -432 32 -45 64 -86 69 -93 27 -33 131 -260 135 -293 0 -3 3 -9 6 -15 6 -9
19 -61 35 -135 32 -151 24 -423 -18 -575 -6 -22 -12 -45 -14 -52 -4 -23 -57
-149 -87 -208 -143 -285 -409 -521 -707 -627 -124 -44 -220 -66 -330 -74 -25
-1 -47 -3 -50 -4 -5 -1 -2618 -2 -2633 -1 -4 1 -6 154 -5 342 l3 340 60 32
c133 71 225 195 251 342 4 22 7 495 7 1051 -1 1096 1 1059 -54 1167 -63 122
-196 220 -334 244 -27 5 -509 8 -1070 8 l-1020 -2 -64 -22 c-151 -52 -264
-171 -306 -321 -17 -61 -18 -129 -19 -1065 -1 -739 2 -1017 11 -1067 22 -121
88 -226 192 -302 27 -20 56 -36 65 -36 9 0 16 -5 16 -11 0 -5 4 -8 9 -5 5 3
13 0 19 -7 13 -16 13 -675 1 -683 -5 -3 -52 -6 -104 -6 -76 -1 -101 -5 -131
-22 -39 -22 -73 -76 -78 -123 -5 -57 58 -144 108 -147 14 0 26 -3 26 -6 0 -3
42 -5 92 -5 l93 0 1 -327 c1 -229 -2 -328 -10 -331 -6 -2 -231 -3 -501 -3
l-489 1 -31 60 c-51 101 -188 220 -277 239 -13 3 -39 9 -58 14 -99 24 -242 -5
-341 -69 -81 -52 -177 -175 -193 -249 -20 -88 -23 -117 -20 -173 5 -90 47
-198 106 -268 50 -61 151 -134 198 -143 3 -1 10 -4 15 -7 18 -12 99 -22 166
-21 72 1 175 31 220 63 15 10 30 19 34 19 7 0 99 94 120 122 6 8 21 36 35 63
l25 50 498 0 c438 1 497 -1 501 -15 6 -21 5 -652 -1 -667 -3 -6 -18 -15 -34
-18 -16 -4 -29 -10 -29 -13 0 -4 -12 -13 -27 -19 -27 -12 -100 -78 -135 -121
-10 -12 -31 -50 -47 -85 -124 -265 32 -583 319 -651 52 -12 167 -13 216 -2 33
7 129 49 132 58 2 4 9 8 15 8 18 1 99 79 133 130 158 232 71 561 -180 684 -53
26 -56 30 -56 64 -1 20 -1 390 -1 822 l0 785 330 1 331 1 0 -1304 0 -1303 -55
-27 c-93 -43 -181 -133 -223 -228 -41 -90 -52 -220 -27 -315 16 -62 66 -151
111 -200 29 -32 129 -110 129 -102 0 2 16 -4 37 -12 128 -54 291 -43 413 28
54 31 165 141 165 163 0 7 5 13 10 13 6 0 10 8 10 18 0 10 4 22 9 28 37 40 51
217 24 307 -36 126 -135 246 -246 300 l-57 28 0 1303 0 1303 330 0 330 0 0
-71 c0 -39 0 -408 1 -821 l1 -750 -64 -33 c-79 -42 -168 -132 -208 -211 -17
-34 -28 -61 -25 -61 3 0 0 -10 -6 -22 -13 -24 -21 -196 -11 -213 4 -5 8 -20
10 -33 1 -13 14 -48 28 -78 90 -197 320 -308 534 -258 191 44 343 219 357 411
6 74 -12 209 -29 219 -4 3 -8 14 -8 25 0 10 -4 19 -9 19 -5 0 -14 12 -20 27
-25 60 -123 148 -206 184 l-45 20 2 342 3 342 498 0 c274 0 504 -3 510 -7 7
-4 9 -8 5 -8 -19 0 60 -121 111 -170 52 -50 143 -105 192 -116 10 -2 29 -7 42
-10 12 -3 56 -6 97 -6 83 0 174 26 243 68 79 49 187 182 187 230 0 8 4 14 8
14 5 0 9 6 9 13 1 6 4 30 9 52 29 155 -17 306 -130 420 -132 133 -337 178
-501 109 -19 -8 -38 -15 -42 -15 -5 -1 -28 -15 -52 -33 -56 -40 -127 -118
-148 -165 -9 -20 -21 -39 -26 -42 -5 -3 -8 -9 -8 -13 1 -3 1 -9 1 -13 0 -6
-942 -10 -998 -4 -10 1 -12 70 -10 329 l3 327 1325 2 c729 1 1325 2 1325 3 0
0 27 3 60 5 120 10 177 20 285 52 47 14 90 26 95 27 6 2 23 8 38 14 16 7 30
12 32 12 2 0 43 19 90 41 142 68 256 141 353 228 249 220 404 459 496 761 14
47 28 96 30 110 2 14 5 25 6 25 1 0 3 14 5 30 2 17 7 50 11 75 11 58 11 350 1
415 -8 54 -23 132 -28 148 -1 4 -7 31 -12 57 -7 34 -47 149 -63 181 -7 15 -10
29 -7 33 4 3 0 6 -7 6 -7 0 -11 3 -8 6 8 7 -67 150 -118 228 -22 32 -43 66
-49 75 -5 9 -12 18 -15 21 -3 3 -30 34 -60 70 -196 233 -452 402 -748 494 -45
14 -97 28 -115 31 -17 3 -39 8 -47 10 -21 6 -110 18 -143 20 -35 1 -40 9 -65
110 -11 44 -26 94 -33 110 -7 17 -13 32 -13 35 -5 23 -87 201 -108 235 -7 10
-33 51 -58 90 -24 38 -49 75 -55 81 -5 6 -21 26 -35 44 -36 48 -178 190 -225
225 -22 17 -45 35 -52 40 -7 6 -18 15 -25 20 -54 44 -338 203 -338 190 0 -2
-29 7 -63 20 -203 76 -477 107 -717 82 l-65 -7 -59 91 c-32 50 -64 96 -70 102
-6 7 -24 30 -41 52 -16 22 -34 45 -40 52 -5 6 -26 31 -45 54 -47 57 -247 256
-300 298 -23 19 -48 40 -54 45 -6 6 -29 24 -51 41 -22 16 -46 35 -53 42 -7 7
-17 13 -21 13 -4 0 -21 11 -36 25 -28 24 -149 98 -263 162 -48 27 -163 81
-297 138 -40 18 -78 29 -87 27 -5 -1 -8 3 -8 9 0 5 -4 8 -10 4 -5 -3 -17 -1
-27 4 -25 14 -99 35 -218 65 -128 31 -162 37 -270 50 -27 3 -66 9 -85 12 -37
6 -476 15 -482 9z m1557 -2237 c34 -18 67 -52 84 -86 15 -28 18 -2014 3 -2052
-5 -14 -22 -38 -36 -53 -52 -56 -58 -57 -516 -57 l-420 0 0 170 0 170 255 0
c206 0 262 3 293 15 40 16 74 53 86 93 4 12 7 180 7 373 0 391 0 389 -71 437
-77 51 -197 8 -220 -78 -6 -23 -10 -140 -10 -280 1 -132 -1 -244 -4 -249 -3
-5 -216 -9 -491 -9 l-485 -1 0 315 c-1 173 -1 370 -1 439 0 69 0 149 1 178 l0
52 588 0 587 1 37 24 c21 14 38 30 38 37 0 6 5 13 10 15 6 2 13 26 16 54 8 61
-10 101 -62 141 l-36 27 -672 1 c-386 0 -684 -3 -701 -9 -16 -5 -41 -18 -53
-30 -54 -48 -52 -22 -52 -766 0 -379 4 -690 8 -690 4 0 12 -10 17 -22 6 -12
30 -32 54 -45 43 -22 52 -23 303 -23 l258 0 0 -170 0 -170 -426 0 c-459 1
-460 1 -508 54 -53 60 -51 13 -49 1056 1 531 2 981 2 1000 1 39 47 120 68 120
7 0 13 4 13 9 0 5 16 13 36 18 20 4 482 8 1028 8 891 -1 994 -3 1021 -17z
m-1185 -2878 c0 -307 -1 -330 -17 -331 -79 -3 -635 0 -639 4 -4 3 -7 571 -4
650 0 4 149 7 330 7 l330 0 0 -330z m960 273 c3 -284 0 -596 -4 -600 -4 -4
-509 -7 -633 -4 l-23 1 0 330 0 330 330 0 330 0 0 -57z m-3313 -1559 c18 -3
31 -10 28 -14 -3 -4 4 -10 15 -13 26 -7 66 -93 64 -138 -6 -142 -184 -216
-285 -119 -54 53 -70 151 -33 207 51 79 104 99 211 77z m5148 -10 c19 -9 45
-32 57 -52 22 -36 25 -43 32 -93 4 -27 -23 -100 -47 -123 -20 -20 -69 -44
-103 -49 -38 -6 -108 17 -136 45 -51 51 -67 137 -36 197 19 37 76 85 106 89
15 2 28 5 30 7 7 7 63 -5 97 -21z m-3525 -1287 c50 -25 89 -88 90 -145 0 -37
-28 -98 -57 -124 -54 -49 -153 -56 -208 -16 -30 21 -60 57 -60 70 0 3 -3 10
-7 14 -13 12 -9 92 6 127 11 28 96 110 96 93 0 -3 10 -2 23 3 29 11 62 5 117
-22z m1905 13 c15 -6 41 -23 56 -38 101 -99 39 -272 -101 -286 -75 -7 -148 36
-177 105 -16 39 -8 113 17 154 20 33 66 66 98 71 8 1 16 4 18 7 7 6 57 -1 89
-13z m-985 -954 c0 11 67 -31 88 -55 116 -135 -35 -339 -196 -264 -133 62
-135 240 -4 307 18 9 37 14 42 11 5 -3 11 -1 15 4 4 7 15 7 30 1 14 -5 25 -7
25 -4z"/>
</g>
</svg>
