<?xml version="1.0" standalone="no"?>
<!DOCTYPE svg PUBLIC "-//W3C//DTD SVG 20010904//EN"
 "http://www.w3.org/TR/2001/REC-SVG-20010904/DTD/svg10.dtd">
<svg version="1.0" xmlns="http://www.w3.org/2000/svg"
 width="700.000000pt" height="700.000000pt" viewBox="0 0 700.000000 700.000000"
 preserveAspectRatio="xMidYMid meet">
<metadata>
Created by potrace 1.14, written by Peter Selinger 2001-2017
</metadata>
<g transform="translate(0.000000,700.000000) scale(0.100000,-0.100000)"
fill="#000000" stroke="none">
<path d="M3285 6994 c-22 -2 -89 -9 -150 -14 -585 -57 -1178 -282 -1670 -633
-234 -167 -517 -435 -698 -662 -367 -458 -619 -1019 -716 -1595 -36 -214 -46
-332 -46 -590 0 -258 10 -376 46 -590 137 -809 561 -1549 1194 -2085 532 -450
1170 -722 1890 -807 144 -16 586 -16 735 1 689 78 1331 348 1854 779 127 105
340 316 451 447 450 532 722 1170 807 1890 7 62 13 220 13 365 0 145 -6 303
-13 365 -99 844 -447 1558 -1043 2141 -555 542 -1251 875 -2029 970 -118 14
-539 27 -625 18z m505 -1550 c674 -117 1226 -620 1400 -1278 30 -114 60 -310
60 -395 l0 -48 71 -7 c385 -38 698 -313 784 -687 23 -103 21 -277 -5 -384 -73
-310 -303 -549 -620 -647 l-75 -23 -1764 -3 c-1924 -3 -1840 -5 -2016 54 -266
89 -495 283 -621 527 -89 171 -125 321 -125 512 0 138 19 253 61 368 126 344
429 611 789 696 l74 18 37 114 c208 649 787 1120 1476 1199 109 12 360 4 474
-16z"/>
</g>
</svg>
