<svg xmlns="http://www.w3.org/2000/svg" xmlns:svgjs="http://svgjs.com/svgjs" xmlns:xlink="http://www.w3.org/1999/xlink" width="288" height="288"><svg xmlns="http://www.w3.org/2000/svg" width="288" height="288" viewBox="0 0 64 64"><g class="color000 svgShape" data-name="outline color"><path fill="none" stroke="#666" stroke-linecap="round" stroke-linejoin="round" stroke-width="2" d="M23.39 22a2.37 2.37 0 01-.26-.47 3 3 0 011.52-4 3 3 0 01.5-.17M20.12 30.56h0a3 3 0 00-1.26 3.31" class="colorStroke666 svgStroke"/><path fill="#0078cd" d="M46.4 57H39.8a1 1 0 010-2h6.6a1 1 0 110 2zM59 57H49.6a1 1 0 110-2H58V42H49a1 1 0 010-2H59a1 1 0 011 1V56A1 1 0 0159 57z" class="colorf57c00 svgShape"/><path fill="#0078cd" d="M52 60H44a1 1 0 01-.9-.57 1 1 0 01.12-1l4-5a1 1 0 011.56 0l4 5a1 1 0 01.12 1A1 1 0 0152 60zm-5.92-2h3.84L48 55.6zM34 40.68h0l-8-.15a1 1 0 01-1-1V29a1 1 0 01.34-.75 1 1 0 01.78-.24l8 1A1 1 0 0135 30v9.68a1 1 0 01-1 1zm-7-2.13l6 .11V30.88l-6-.75zM26 55a1 1 0 01-.66-.25A1 1 0 0125 54V43.47a1 1 0 011-1l8-.15a1 1 0 01.72.28 1 1 0 01.3.72V53a1 1 0 01-.88 1l-8 1zm8-2h0zm-7-8.55v8.42l6-.75V44.34zM45 41h0l-8-.23a1 1 0 01-1-1V30.56a1 1 0 01.36-.76 1 1 0 01.82-.22l8 1.44A1 1 0 0146 32v8a1 1 0 01-1 1zm-7-2.2L44 39V32.84l-6-1.08zM37 53.44a1 1 0 01-.64-.24 1 1 0 01-.36-.76V43.23a1 1 0 011-1L45 42a1 1 0 01.73.28A1 1 0 0146 43v8a1 1 0 01-.82 1l-8 1.44zm1-9.24v7l6-1.08V44zM45 51h0z" class="colorf57c00 svgShape"/><path fill="#666" d="M14.92 29.18a3.93 3.93 0 01-1.43-.26 4 4 0 01-.21-7.39 3.92 3.92 0 013.06-.08 4 4 0 012.31 5.16 4 4 0 01-2.1 2.22A3.89 3.89 0 0114.92 29.18zm0-6a2 2 0 00-1.87 1.29 2 2 0 103.73 1.43 1.94 1.94 0 000-1.53h0a2 2 0 00-1.11-1.06A2.17 2.17 0 0014.92 23.18zM21.62 26.47a1 1 0 01-.91-.59L18.26 20.4a1 1 0 111.82-.81l2.45 5.48a1 1 0 01-.5 1.32A1 1 0 0121.62 26.47zM17.48 39.28a1 1 0 01-.91-.6l-2.45-5.47A1 1 0 1116 32.39l2.44 5.48a1 1 0 01-.5 1.32A1 1 0 0117.48 39.28z" class="color666 svgShape"/><path fill="#999" d="M21.66,55.09a5,5,0,0,1-4.55-3L4.46,23.84A5,5,0,0,1,7,17.23L28,7.82a1,1,0,0,1,1.34,1.27L18.71,37a3,3,0,0,0,1.73,3.87l1.92.73a1,1,0,1,1-.72,1.86l-1.92-.73a5,5,0,0,1-2.87-6.45l9.81-25.68L7.8,19.05a3,3,0,0,0-1.52,4l12.65,28.3a3,3,0,0,0,3,1.76,1,1,0,1,1,.16,2Z" class="color999 svgShape"/><path fill="#999" d="M51.91,38a.92.92,0,0,1-.36-.07A1,1,0,0,1,51,36.64l6.83-17.87a3,3,0,0,0-1.74-3.87L33.65,6.33a3,3,0,0,0-3.88,1.74l-.39,1a1,1,0,1,1-1.86-.72l.39-1a5,5,0,0,1,6.46-2.88L56.79,13a5,5,0,0,1,2.89,6.44L52.84,37.36A1,1,0,0,1,51.91,38Z" class="color999 svgShape"/><path fill="#666" d="M34.35 19.7a3.92 3.92 0 01-1.42-.26 4 4 0 115.16-2.31h0A4 4 0 0134.35 19.7zm0-6a2 2 0 101.86 2.72h0a2 2 0 00-1.15-2.59A2.27 2.27 0 0034.36 13.7zm2.8 3.07h0zM38.89 21.65a.92.92 0 01-.36-.07A1 1 0 0138 20.29l2.15-5.6A1 1 0 1142 15.4L39.82 21A1 1 0 0138.89 21.65zM45.56 24a4 4 0 01-3.65-2.37 4 4 0 012-5.28A4 4 0 0147 16.25a4 4 0 012.31 5.17h0A4 4 0 0145.56 24zm0-6a1.9 1.9 0 00-.81.17 2 2 0 00-1.06 1.11 2 2 0 002.69 2.54 1.94 1.94 0 001-1.11 2 2 0 00-1.15-2.58A2 2 0 0045.56 18zm2.8 3.07h0zM50.1 25.93a1.13 1.13 0 01-.36-.06 1 1 0 01-.58-1.29L51.3 19a1 1 0 011.3-.58 1 1 0 01.57 1.29L51 25.29A1 1 0 0150.1 25.93zM46.9 29.27a1 1 0 01-.71-.29 1.7 1.7 0 00-.67-.44 2 2 0 00-1.57 0 1 1 0 01-.82-1.82 4 4 0 013.1-.09 3.94 3.94 0 011.38.89 1 1 0 010 1.42A1 1 0 0146.9 29.27zM39.68 28a1 1 0 01-.35-.06 1 1 0 01-.58-1.29l.57-1.53a1 1 0 011.29-.58 1 1 0 01.58 1.28l-.57 1.53A1 1 0 0139.68 28zM36.58 27.29h0a1 1 0 01-1-1.05 2 2 0 00-3.87-.84 2.13 2.13 0 00-.08.32 1 1 0 01-1.16.81 1 1 0 01-.81-1.15 3.16 3.16 0 01.18-.67 4 4 0 017.74 1.63A1 1 0 0136.58 27.29zM27.53 26.16a.92.92 0 01-.36-.07 1 1 0 01-.57-1.29l1.52-4a1 1 0 011.86.72l-1.52 4A1 1 0 0127.53 26.16z" class="color666 svgShape"/></g></svg></svg>